<?xml version="1.0" encoding="utf-8"?>
<!-- Generator: Adobe Illustrator 25.2.1, SVG Export Plug-In . SVG Version: 6.00 Build 0)  -->
<svg version="1.1" id="Layer_1" xmlns="http://www.w3.org/2000/svg" xmlns:xlink="http://www.w3.org/1999/xlink" x="0px" y="0px"
	 viewBox="0 0 152.65 54" style="enable-background:new 0 0 152.65 54;" xml:space="preserve">
<style type="text/css">
	.st0{fill:#FFFFFF;}
</style>
<g>
	<g>
		<g>
			<path class="st0" d="M9.75,28.18C4.16,28.18,0,23.83,0,18.3c0-5.48,4.08-9.94,9.89-9.94c3.53,0,5.67,1.23,7.51,2.99l-2.16,2.49
				c-1.53-1.42-3.18-2.38-5.37-2.38c-3.67,0-6.33,3.01-6.33,6.79c0,3.78,2.66,6.85,6.33,6.85c2.36,0,3.86-0.96,5.51-2.49l2.16,2.19
				C15.53,26.87,13.34,28.18,9.75,28.18"/>
			<path class="st0" d="M39.42,27.86h-3.56l-1.95-4.63h-9.07l-1.97,4.63h-3.45l8.44-19.31h3.12L39.42,27.86z M29.36,12.57
				l-3.29,7.67h6.6L29.36,12.57z"/>
			<polygon class="st0" points="56.1,8.68 59.41,8.68 59.41,27.86 56.59,27.86 46.02,14.22 46.02,27.86 42.7,27.86 42.7,8.68 
				45.82,8.68 56.1,21.94 			"/>
			<polygon class="st0" points="77.74,8.68 81.05,8.68 81.05,27.86 78.23,27.86 67.65,14.22 67.65,27.86 64.34,27.86 64.34,8.68 
				67.46,8.68 77.74,21.94 			"/>
			<path class="st0" d="M104.33,27.86h-3.56l-1.95-4.63h-9.07l-1.97,4.63h-3.45l8.44-19.31h3.12L104.33,27.86z M94.28,12.57
				l-3.29,7.67h6.6L94.28,12.57z"/>
		</g>
		<g>
			<path class="st0" d="M68.49,38.01c-0.64,0-1.33,0.13-2.04,0.39c1.27-1.52,2.84-3.31,4.79-5.51c0.46-0.53,0.41-1.34-0.13-1.81
				c-0.23-0.2-0.53-0.32-0.84-0.32c-0.37,0-0.73,0.16-0.97,0.44c-5.95,6.69-7.69,8.9-9.8,12.43c-0.02,0.03-0.03,0.06-0.05,0.09
				c-0.03,0.03-0.06,0.06-0.08,0.09L59.25,44c-1.27,1.73-3.91,5.33-5.46,5.33c-0.24,0-0.28-0.08-0.3-0.13
				c-0.29-0.54-0.11-2.37,1.64-4.95c0.17-0.25,0.92-1.64,0.97-1.69c0.76-0.93,0.93-2.12,0.45-3.12c-0.24-0.52-0.65-0.97-1.22-1.31
				l-0.05-0.03c-0.58-0.29-1.21-0.44-1.89-0.44c-1.26,0-2.68,0.56-4.22,1.66c-1.31,0.95-2.66,2.32-3.72,3.75
				c-0.13,0.18-0.25,0.36-0.37,0.54c-0.06,0.05-0.11,0.1-0.16,0.15c-0.94,1.11-2.9,3.23-5.37,5.01c-2.4,1.76-4.56,2.65-6.43,2.65
				c-1.4,0-2.45-0.57-3.06-1.66c-0.51-0.85-0.7-2.12-0.55-3.56c0.23-1.67,1-3.59,2.06-5.48c2.3-4.11,5.68-7.72,9.27-9.6
				c2-1.05,3.94-1.77,5.43-1.77c0.51,0,0.96,0.03,1.3,0.22c0.04,0.02,0,0.46-0.02,0.69c-0.17,1.95-3.09,4.28-6.3,5.1
				c-0.66,0.2-1.05,0.85-0.92,1.51l0.01,0.04c0.16,0.58,0.65,0.97,1.24,0.97c0.12,0,0.24-0.02,0.35-0.05
				c1.91-0.5,4.8-2.03,6.19-3.43c1.23-1.3,1.95-3.05,2.06-4.33c0.09-1.33-0.5-2.38-1.55-2.8c-1.14-0.51-2.6-0.61-4.27-0.28
				c-1.49,0.31-3.53,1.14-5.21,2.13c-6.03,3.57-8.73,8.45-9.8,10.32c-1.32,2.26-2.11,4.42-2.36,6.43c-0.25,2,0.04,3.79,0.85,5.17
				c1.06,1.89,2.93,2.94,5.27,2.94c2.4,0,5.07-1.05,7.96-3.13c0.86-0.62,1.73-1.34,2.59-2.14c0.06,0.49,0.18,0.94,0.39,1.34
				c0.51,1.01,1.47,1.59,2.65,1.59c1.28,0,2.65-0.71,4.19-2.18c0.07,0.32,0.17,0.63,0.32,0.9c0.51,0.98,1.43,1.52,2.58,1.52
				c1.32,0,2.68-0.74,4.17-2.26c0.01-0.01,0.01-0.01,0.02-0.02c0.08,0.28,0.18,0.51,0.3,0.72c0.55,0.98,1.59,1.56,2.77,1.56
				c1.39,0,3-0.64,4.67-1.87c1.63-1.23,3.1-2.88,4.24-4.75c1.45-2.34,1.83-4.49,1.04-5.92C70.46,38.49,69.57,38.01,68.49,38.01z
				 M52.98,42.81c-2.88,4.35-5.23,6.29-6.28,6.29c-0.28,0-0.31-0.07-0.35-0.16l-0.02-0.04c-0.19-0.36-0.2-0.99-0.04-1.71
				c0.22-0.88,0.66-1.8,1.23-2.58c1.86-2.54,4.32-4.38,5.86-4.38c0.43,0,0.77,0.12,0.86,0.31c0.04,0.07-0.01,0.24-0.11,0.39
				c-0.45,0.69-0.98,1.64-1.13,1.84L52.98,42.81z M67.77,43.93c-1.03,1.68-2.28,3.08-3.61,4.06c-1.18,0.87-2.29,1.35-3.13,1.35
				c-0.18,0-0.42-0.04-0.53-0.23c-0.07-0.16-0.17-0.51-0.07-1.21c0.09-0.37,0.2-0.81,0.39-1.23c2.57-3.59,5.72-6.1,7.66-6.1
				c0.23,0,0.26,0.06,0.27,0.07C69,41.07,68.7,42.45,67.77,43.93z"/>
			<path class="st0" d="M117.17,44.38c-0.06-0.34-0.25-0.64-0.54-0.84c-0.21-0.15-0.46-0.24-0.73-0.24c-0.4,0-0.79,0.19-1.03,0.51
				L114.74,44c-1.27,1.73-3.91,5.34-5.46,5.34c-0.24,0-0.28-0.08-0.3-0.13c-0.29-0.54-0.11-2.37,1.64-4.95
				c0.15-0.23,0.91-1.63,0.96-1.69c0.76-0.92,0.93-2.12,0.45-3.12c-0.24-0.53-0.65-0.97-1.22-1.31l-0.05-0.03
				c-0.58-0.29-1.21-0.43-1.89-0.43c-1.26,0-2.68,0.56-4.22,1.66c-1.31,0.95-2.66,2.32-3.71,3.75c-0.14,0.19-0.27,0.39-0.4,0.59
				c-0.05,0.05-0.1,0.1-0.14,0.15c-1.05,1.43-2.16,2.92-3.26,3.99c-1.09,1.03-1.96,1.53-2.66,1.53c-0.28,0-0.61-0.07-0.67-0.23
				l-0.02-0.05c-0.16-0.32-0.09-1.72,2.12-4.31l1.16-1.39c0.66-0.78,1.18-1.4,1.53-1.91c0.37-0.5,1.14-1.55,0.63-2.56
				c-0.32-0.67-0.99-1-2.02-1c-1.69,0-4.01,1.07-6.54,3.01c-0.01,0.01-0.03,0.02-0.04,0.03c0.53-0.75,1.07-1.5,1.62-2.25
				c0.21-0.28,0.3-0.64,0.24-0.98c-0.06-0.32-0.23-0.6-0.49-0.79c-0.22-0.18-0.49-0.27-0.76-0.27c-0.41,0-0.79,0.2-1.02,0.54
				c-1.48,1.96-2.96,4.1-4.53,6.55c-0.2,0.31-0.39,0.62-0.58,0.92c-1.37,1.85-3.61,4.69-4.99,4.69c-0.24,0-0.28-0.08-0.3-0.13
				c-0.29-0.54-0.11-2.37,1.64-4.95c0.18-0.27,0.83-1.54,0.97-1.69c0.76-0.93,0.93-2.12,0.45-3.12c-0.24-0.53-0.65-0.97-1.22-1.31
				l-0.05-0.03c-0.58-0.29-1.21-0.44-1.89-0.44c-1.26,0-2.68,0.56-4.22,1.66c-1.31,0.95-2.66,2.32-3.71,3.75
				c-1.73,2.36-2.31,5.24-1.39,6.99c0.51,1.01,1.47,1.59,2.65,1.59c1.28,0,2.65-0.72,4.19-2.18c0.07,0.32,0.17,0.63,0.32,0.9
				c0.51,0.98,1.43,1.52,2.58,1.52c0.63,0,1.27-0.17,1.93-0.51l0.12,0.12c0.04,0.04,0.13,0.13,0.27,0.19l0.12,0.08l0.11,0.03
				c0.12,0.03,0.23,0.04,0.35,0.04c0.43,0,0.82-0.19,1.05-0.51c2.63-3.48,5.45-6.39,8.16-8.43c1.53-1.16,2.8-1.84,3.72-2.19
				c-0.33,0.42-0.76,0.91-1.25,1.49l-0.07,0.08c-0.16,0.17-0.31,0.34-0.45,0.51c-0.07,0.09-0.15,0.18-0.24,0.28
				c-2.46,2.9-3.32,5.35-2.5,7.07c0.51,1.11,1.61,1.75,3.03,1.75c1.71,0,3.29-1.06,4.78-2.59c0.07,0.27,0.16,0.53,0.29,0.77
				c0.51,1.01,1.47,1.59,2.65,1.59c1.28,0,2.65-0.71,4.19-2.18c0.07,0.32,0.17,0.63,0.32,0.9c0.51,0.98,1.43,1.52,2.58,1.52
				c1.32,0,2.68-0.74,4.16-2.26c1.18-1.18,2.33-2.71,3.5-4.31C117.15,45.05,117.23,44.71,117.17,44.38z M79.33,42.78l-0.02,0.03
				c-2.88,4.35-5.23,6.29-6.28,6.29c-0.28,0-0.31-0.07-0.35-0.16l-0.02-0.04c-0.19-0.36-0.2-0.99-0.04-1.71
				c0.22-0.88,0.66-1.8,1.23-2.58c1.86-2.54,4.32-4.38,5.86-4.38c0.43,0,0.77,0.12,0.86,0.31c0.08,0.16,0.08,0.28,0.02,0.36
				C80.39,41.14,79.44,42.63,79.33,42.78z M108.5,42.78l-0.02,0.03c-2.88,4.35-5.23,6.29-6.28,6.29c-0.28,0-0.31-0.07-0.35-0.16
				l-0.02-0.04c-0.19-0.36-0.2-0.99-0.04-1.71c0.22-0.88,0.66-1.8,1.23-2.58c1.86-2.54,4.32-4.38,5.86-4.38
				c0.43,0,0.77,0.12,0.86,0.31c0.03,0.06,0.01,0.23-0.11,0.39C109.41,41.18,108.63,42.6,108.5,42.78z"/>
		</g>
	</g>
	<path class="st0" d="M136.01,0c0,0-0.38,40.4-0.3,40.41c0.08,0,5.38-30.82,5.38-30.82l2.17,0.39l-6.2,32.81l10.31-22.9l2,0.91
		c0,0-10.46,21.62-11.31,23.5c-0.03,0.07,13-14.86,13-14.86l1.59,1.52l-17.8,18.55l-17.8-18.55l1.59-1.52c0,0,13.03,14.93,13,14.86
		c-0.85-1.88-11.31-23.5-11.31-23.5l2-0.91l10.31,22.9l-6.2-32.81l2.17-0.39c0,0,5.3,30.82,5.38,30.82C134.08,40.4,133.7,0,133.7,0
		L136.01,0z"/>
</g>
</svg>
