<?xml version="1.0" encoding="UTF-8"?> <svg xmlns="http://www.w3.org/2000/svg" width="201" height="60" viewBox="0 0 201 60" fill="none"><path fill-rule="evenodd" clip-rule="evenodd" d="M12.5592 42.5775C6.88769 46.0039 4.29198 49.148 3.31889 50.391C3.2764 50.4437 3.22639 50.4878 3.17047 50.5211C3.08879 50.6388 3.00972 50.7678 2.92799 50.9173L2.92265 50.9254C2.91618 50.9394 2.91132 50.9518 2.90379 50.9647C2.37266 51.9631 2.36938 53.0748 2.89412 54.1797C3.89517 56.2872 7.55866 57.8163 11.606 57.8174V58.355V57.8174C14.2017 57.8174 16.542 57.1555 18.0248 56.0028C18.0372 55.9931 18.0501 55.9845 18.0624 55.9765C18.0877 55.9544 18.1216 55.9249 18.1635 55.8862L18.2894 55.7819C18.3565 55.7286 18.4237 55.6759 18.4829 55.6184C18.5668 55.5361 18.6463 55.4534 18.7232 55.3684C18.7441 55.3287 18.7716 55.2915 18.8028 55.2582C19.1759 54.8716 19.6146 54.3055 20.2141 53.641C23.6017 49.8851 20.5797 46.2829 19.2334 44.913C17.9576 43.6152 14.6028 41.3425 12.5592 42.5775" fill="white"></path><path fill-rule="evenodd" clip-rule="evenodd" d="M10.499 26.4232C9.16938 26.2114 8.18876 26.1227 7.48231 26.1227C6.6705 26.1227 6.32156 26.2216 6.31889 26.2227C6.27264 26.235 6.21777 26.2447 6.16942 26.2458C4.71832 26.2679 0.95166 27.5119 0.95166 32.9286C0.95166 38.8393 4.2092 39.8544 6.16242 39.9313C6.32265 39.927 7.86564 39.8474 10.3753 39.4765C13.8183 38.9673 13.8183 35.1022 13.8183 33.2254C13.8183 31.2055 14.1323 27.0049 10.499 26.4232" fill="white"></path><path fill-rule="evenodd" clip-rule="evenodd" d="M16.2891 33.2254C16.2891 34.7007 16.8047 37.7578 19.3057 36.6561C21.7326 35.5872 24.4794 34.5949 27.2541 33.1174C24.1928 31.6712 21.4966 30.5561 19.1665 29.5986C16.2891 28.4163 16.2891 31.6733 16.2891 33.2254" fill="white"></path><path fill-rule="evenodd" clip-rule="evenodd" d="M20.7477 43.448C21.7901 44.4916 24.317 46.2884 25.3063 43.741C26.2671 41.269 27.5068 38.6249 28.4246 35.6179C25.238 36.7604 22.5423 37.8787 20.2176 38.8485C17.3466 40.048 19.6503 42.3507 20.7477 43.448" fill="white"></path><path fill-rule="evenodd" clip-rule="evenodd" d="M41.4477 43.5152C42.4902 42.4716 44.288 39.9458 41.7396 38.9566C39.2676 37.9958 36.6235 36.7549 33.6175 35.8383C34.7589 39.0248 35.8772 41.7206 36.8482 44.0442C38.0466 46.9162 40.3504 44.6125 41.4477 43.5152" fill="white"></path><path fill-rule="evenodd" clip-rule="evenodd" d="M31.0551 48.1691C32.5304 48.1691 35.5874 47.6546 34.4858 45.1525C33.4169 42.7256 32.4245 39.9789 30.9471 37.203C29.5003 40.2654 28.3847 42.9616 27.4282 45.2917C26.246 48.1691 29.5029 48.1691 31.0551 48.1691" fill="white"></path><path fill-rule="evenodd" clip-rule="evenodd" d="M41.1778 22.5074C40.1343 21.4645 37.6085 19.6671 36.6187 22.2145C35.6584 24.6876 34.4176 27.3316 33.5009 30.3376C36.6875 29.1962 39.3832 28.0779 41.7069 27.107C44.5778 25.9085 42.2751 23.6048 41.1778 22.5074" fill="white"></path><path fill-rule="evenodd" clip-rule="evenodd" d="M30.7968 18.4321C29.3216 18.4321 26.2646 18.9467 27.3662 21.4488C28.435 23.8757 29.4275 26.6225 30.9049 29.3978C32.3511 26.336 33.4662 23.6397 34.4237 21.3096C35.606 18.4321 32.349 18.4321 30.7968 18.4321" fill="white"></path><path fill-rule="evenodd" clip-rule="evenodd" d="M20.1701 22.3826C19.1261 23.425 17.3298 25.9508 19.8772 26.9406C22.3492 27.9009 24.9932 29.1417 28.0003 30.0595C26.8578 26.8723 25.7395 24.1761 24.7696 21.8525C23.5701 18.9815 21.2669 21.2853 20.1701 22.3826" fill="white"></path><path fill-rule="evenodd" clip-rule="evenodd" d="M45.564 33.0103C45.564 31.535 45.0484 28.4791 42.5473 29.5807C40.1204 30.6495 37.3736 31.642 34.5984 33.1184C37.6591 34.5657 40.3564 35.6807 42.6855 36.6372C45.564 37.8205 45.564 34.5624 45.564 33.0103" fill="white"></path><path fill-rule="evenodd" clip-rule="evenodd" d="M17.6584 8.12147C15.0481 4.64569 12.2158 2.41125 8.9836 2.41125C8.23628 2.41125 4.40136 3.60915 2.4207 6.23226C0.938971 8.19301 0.581982 10.2269 1.32768 12.4489C2.44971 15.7924 5.95297 18.9613 10.0535 21.9248C13.9256 24.721 16.9621 21.6957 18.4573 20.5839C23.288 16.9914 18.7589 9.58544 17.6584 8.12147" fill="white"></path><path fill-rule="evenodd" clip-rule="evenodd" d="M37.9699 11.3652C38.4172 7.96409 38.2274 6.74042 38.2188 6.71574C38.2026 6.66521 38.1946 6.61248 38.1935 6.5598C38.1693 5.01034 36.843 0.98938 31.0677 0.98938C26.1145 0.98938 23.6026 3.06464 23.6026 7.15871C23.6037 7.19529 23.6113 8.69798 24.051 11.234C24.8693 15.9416 28.9005 15.9416 30.8505 15.9416C32.8457 15.9416 37.3693 15.9416 37.9699 11.3652" fill="white"></path><mask id="mask0" maskUnits="userSpaceOnUse" x="24" y="49" width="14" height="11"><path fill-rule="evenodd" clip-rule="evenodd" d="M24.5531 49.6151H37.2024V59.0899H24.5531V49.6151Z" fill="white"></path></mask><g mask="url(#mask0)"><path fill-rule="evenodd" clip-rule="evenodd" d="M37.1802 54.7216C37.1657 54.6678 37.1549 54.606 37.1538 54.5522C37.1538 54.5033 36.9114 49.6151 30.9188 49.6151C25.8248 49.6151 24.6474 52.5952 24.557 55.0952C24.557 55.127 24.1753 59.0899 30.9103 59.0899C37.8807 59.0899 37.1877 54.7469 37.1802 54.7216" fill="white"></path></g><path fill-rule="evenodd" clip-rule="evenodd" d="M47.7365 17.0303C47.7693 11.7696 45.3833 10.0367 43.8069 10.0367C43.2414 10.0367 42.7129 10.375 42.2403 11.0438C41.7741 11.7013 41.2838 12.4185 40.7769 13.1943C40.029 14.3357 40.0478 17.6647 43.4344 20.4212C46.4914 22.9088 47.7177 20.0535 47.7365 17.0303" fill="white"></path><path fill-rule="evenodd" clip-rule="evenodd" d="M47.7365 47.5978C47.7693 52.8586 45.3844 54.5914 43.8069 54.5914C43.2414 54.5914 42.714 54.2532 42.2403 53.5844C41.7741 52.9269 41.2838 52.2096 40.7769 51.4338C40.029 50.2924 40.0478 46.9634 43.4344 44.207C46.4914 41.7193 47.7177 44.5747 47.7365 47.5978" fill="white"></path><path fill-rule="evenodd" clip-rule="evenodd" d="M72.9561 38.446L72.9894 33.5594C71.4378 33.4606 69.8856 33.7245 68.4324 34.3519C67.8055 34.5831 67.6733 34.6493 67.4421 34.1541L66.5835 31.4788C66.4512 31.1159 66.4184 30.8842 66.9141 30.6535C68.4657 29.8944 70.6781 29.3331 72.791 29.3331C73.9469 29.3331 74.9045 29.3987 75.6642 29.5637C77.612 29.9928 77.8432 31.2809 77.8432 33.2621V40.1966C77.8432 40.824 77.7443 41.3191 77.0507 41.7482C74.4426 43.2998 70.5786 43.4654 69.0604 43.4654C61.8286 43.4654 58.6587 39.0078 58.6587 31.6444C58.6587 24.4126 62.4566 19.6583 69.3577 19.6583C71.6356 19.6583 73.9136 19.9223 75.9937 21.0777C76.4894 21.3422 76.5883 21.4745 76.2254 22.2336L75.2018 24.5777C74.9706 25.2051 74.8389 25.3046 74.2109 25.0734C72.6265 24.5121 71.2394 24.2476 69.5555 24.2476C65.6921 24.2476 63.942 27.3847 63.942 31.6772C63.942 36.0358 65.1963 38.9417 69.5222 38.9417C70.3475 38.9417 71.7673 38.8756 72.9561 38.446" fill="white"></path><path fill-rule="evenodd" clip-rule="evenodd" d="M85.4698 43.102H82.1009C81.6063 43.102 81.4079 43.0025 81.4079 42.5073V28.4412C81.4079 26.724 81.8042 25.8654 83.7525 25.5686C84.5445 25.4691 85.3703 25.4036 86.2622 25.4036C89.1676 25.4036 92.1391 26.1299 94.3521 27.7476C94.715 28.0122 94.616 28.2428 94.4838 28.5068L92.7665 31.2477C92.5025 31.6772 92.3709 31.5777 91.8752 31.281C90.6537 30.3562 89.2665 29.6955 87.5171 29.6632C87.0542 29.6632 86.6246 29.6955 86.1961 29.7622V42.5073C86.1961 43.0358 86.0966 43.102 85.4698 43.102" fill="white"></path><path fill-rule="evenodd" clip-rule="evenodd" d="M103.233 35.2433C102.012 35.2433 100.228 35.4745 100.228 37.5874C100.228 39.1395 101.351 39.6675 103.101 39.6675C103.629 39.6675 104.95 39.6019 105.842 39.239V35.2433H103.233ZM109.969 42.2433C107.955 43.2013 105.182 43.4654 102.969 43.4654C97.0257 43.4654 95.2751 41.0218 95.2751 37.9508C95.2751 34.5497 97.5208 32.0406 102.243 32.0406H105.875V31.5116C105.875 30.2901 105.479 29.1675 103.002 29.1675C101.648 29.1675 99.5682 29.4314 98.3466 29.7949C97.7848 29.9271 97.6203 29.7949 97.5208 29.3659L96.9929 27.054C96.8601 26.5594 96.9595 26.4272 97.323 26.2949C99.3036 25.6013 101.549 25.3046 103.696 25.3046C108.484 25.3046 110.662 27.3847 110.662 31.3798V40.9557C110.662 41.5169 110.597 41.8804 109.969 42.2433V42.2433Z" fill="white"></path><path fill-rule="evenodd" clip-rule="evenodd" d="M120.502 43.4652C118.223 43.4652 115.482 43.0029 113.534 41.847C113.171 41.6163 113.105 41.4179 113.336 40.9889L114.294 38.7104C114.525 38.2147 114.69 38.1163 115.185 38.3475C116.572 38.9416 118.917 39.5357 120.303 39.5357C121.888 39.5357 122.45 38.9088 122.45 38.083C122.45 37.1916 121.657 36.6959 119.445 35.8706C115.945 34.5496 113.996 33.2293 113.996 30.5217C113.996 27.6485 116.077 25.3373 120.436 25.3373C122.417 25.3373 124.563 25.7007 126.247 26.4598C126.742 26.691 126.709 26.8566 126.544 27.3846L125.718 29.498C125.553 29.9927 125.389 29.9927 124.893 29.8281C123.275 29.3329 121.988 29.0685 120.534 29.0685C119.346 29.0685 118.851 29.762 118.851 30.3233C118.851 31.2147 119.577 31.6443 121.591 32.4034C124.761 33.6249 127.369 34.7813 127.369 38.1486C127.369 41.7153 124.596 43.4652 120.502 43.4652" fill="white"></path><path fill-rule="evenodd" clip-rule="evenodd" d="M136.251 43.4652C133.973 43.4652 131.232 43.0029 129.284 41.847C128.92 41.6163 128.854 41.4179 129.086 40.9889L130.044 38.7104C130.275 38.2147 130.439 38.1163 130.935 38.3475C132.322 38.9416 134.666 39.5357 136.053 39.5357C137.638 39.5357 138.2 38.9088 138.2 38.083C138.2 37.1916 137.406 36.6959 135.194 35.8706C131.694 34.5496 129.746 33.2293 129.746 30.5217C129.746 27.6485 131.827 25.3373 136.185 25.3373C138.166 25.3373 140.312 25.7007 141.997 26.4598C142.491 26.691 142.459 26.8566 142.294 27.3846L141.468 29.498C141.303 29.9927 141.138 29.9927 140.643 29.8281C139.025 29.3329 137.737 29.0685 136.284 29.0685C135.096 29.0685 134.6 29.762 134.6 30.3233C134.6 31.2147 135.326 31.6443 137.34 32.4034C140.511 33.6249 143.119 34.7813 143.119 38.1486C143.119 41.7153 140.345 43.4652 136.251 43.4652" fill="white"></path><path fill-rule="evenodd" clip-rule="evenodd" d="M157.614 38.4135C158.175 38.1818 158.307 38.2151 158.473 38.7108L159.397 41.1866C159.628 41.6162 159.662 41.8473 159.166 42.1114C157.218 43.1684 154.873 43.4651 153.057 43.4651C147.873 43.4651 145.133 40.4608 145.133 34.4839C145.133 28.8043 148.302 25.3376 153.354 25.3376C155.203 25.3376 157.086 25.7005 158.571 26.4602C159.133 26.7242 159.166 26.8565 158.935 27.3844L158.01 29.9275C157.779 30.4226 157.614 30.3892 156.986 30.2242C155.831 29.8613 154.741 29.6301 153.717 29.6301C151.109 29.6301 150.119 31.8753 150.119 34.4839C150.119 37.2242 150.911 39.1726 153.816 39.1726C155.236 39.1726 156.657 38.7764 157.614 38.4135" fill="white"></path><path fill-rule="evenodd" clip-rule="evenodd" d="M166.693 43.102H163.325C162.83 43.102 162.631 43.0025 162.631 42.5074V26.3606C162.631 25.8654 162.83 25.7665 163.325 25.7665H166.693C167.321 25.7665 167.42 25.8654 167.42 26.3606V42.5074C167.42 43.0025 167.321 43.102 166.693 43.102M165.075 23.9504C163.589 23.9504 162.335 22.7944 162.335 21.2428C162.335 19.6912 163.589 18.502 165.075 18.502C166.594 18.502 167.849 19.6912 167.849 21.2428C167.849 22.7944 166.627 23.9504 165.075 23.9504" fill="white"></path><path fill-rule="evenodd" clip-rule="evenodd" d="M182.674 42.904C181.056 43.3991 179.306 43.4653 178.151 43.4653C174.353 43.4653 172.868 41.847 172.868 38.7104V29.2996H170.556C170.061 29.2996 169.995 29.0357 169.995 28.6722V26.8894C169.995 26.4598 170.028 26.3604 170.523 26.2287L172.966 25.6674L173.198 22.5636C173.231 22.0357 173.462 21.8701 173.957 21.7383L176.995 20.7475C177.391 20.648 177.655 20.8136 177.655 21.3421V25.7663H181.288C181.783 25.7663 181.816 25.9647 181.816 26.3281V28.6722C181.816 29.1013 181.816 29.2996 181.288 29.2996H177.655V37.6868C177.655 38.9744 178.283 39.3707 179.571 39.3707C180.198 39.3707 181.453 39.2389 182.047 39.1395C182.41 39.0733 182.575 39.1728 182.608 39.4696L183.004 42.2432C183.038 42.5405 183.17 42.7384 182.674 42.904" fill="white"></path><path fill-rule="evenodd" clip-rule="evenodd" d="M188.287 50.2009C187.395 50.2009 186.173 50.102 185.018 49.7391C184.49 49.6063 184.357 49.5079 184.49 49.0122L185.05 46.4042C185.183 45.8756 185.282 45.909 185.777 46.0074C186.471 46.1397 186.9 46.173 187.395 46.173C188.947 46.173 189.739 45.8095 190.235 44.2574L190.829 42.4746H189.871C188.848 42.4746 188.551 42.2434 188.155 41.0547L183.136 26.3939C182.97 25.8987 183.202 25.7665 183.565 25.7665H187.428C188.088 25.7665 188.254 25.8654 188.386 26.3606L190.268 33.0305L191.82 38.7762H192.018L193.702 32.932L195.684 26.4267C195.815 25.9315 195.947 25.7665 196.608 25.7665H200.537C200.9 25.7665 201.033 25.9315 200.9 26.295L194.23 46.0074V45.9746C193.206 49.0122 191.423 50.2009 188.287 50.2009" fill="white"></path></svg> 