<?xml version="1.0" standalone="no"?>
<!DOCTYPE svg PUBLIC "-//W3C//DTD SVG 20010904//EN"
 "http://www.w3.org/TR/2001/REC-SVG-20010904/DTD/svg10.dtd">
<svg version="1.0" xmlns="http://www.w3.org/2000/svg"
 width="304.000000pt" height="304.000000pt" viewBox="0 0 304.000000 304.000000"
 preserveAspectRatio="xMidYMid meet">
<metadata>
Created by potrace 1.11, written by Peter Selinger 2001-2013
</metadata>
<g transform="translate(0.000000,304.000000) scale(0.100000,-0.100000)"
fill="#000000" stroke="none">
<path d="M1369 2892 c-151 -154 -266 -279 -388 -422 -165 -192 -191 -375 -84
-590 34 -68 65 -103 346 -386 l309 -312 -64 -7 c-260 -27 -462 -194 -534 -440
-20 -72 -23 -198 -5 -275 39 -167 158 -318 311 -394 110 -55 196 -71 340 -63
492 28 927 369 1083 848 51 155 71 369 46 491 -65 322 -334 757 -778 1258 -89
101 -422 440 -431 440 -4 0 -72 -66 -151 -148z m257 -154 c469 -485 819 -971
923 -1284 43 -129 54 -215 41 -341 -33 -322 -201 -605 -466 -784 -107 -72
-109 -72 -74 2 83 176 77 364 -17 542 -20 38 -151 177 -504 532 -436 440 -479
486 -510 550 -31 64 -34 77 -34 165 0 117 16 152 130 285 96 112 397 435 405
435 4 0 52 -46 106 -102z m87 -1746 c83 -41 167 -129 209 -219 43 -92 51 -217
20 -320 -41 -133 -145 -239 -279 -284 -53 -17 -82 -21 -161 -17 -83 3 -107 8
-165 35 -376 177 -325 724 78 830 30 7 87 11 142 9 80 -3 102 -8 156 -34z"/>
<path d="M605 1971 c-166 -251 -270 -486 -296 -674 -31 -220 54 -529 208 -759
90 -134 292 -325 406 -384 l29 -16 -25 34 c-33 44 -72 123 -88 178 -9 33 -32
66 -84 120 -39 41 -87 98 -107 125 -131 182 -206 431 -195 646 8 161 92 371
237 597 l49 78 -15 42 c-8 24 -18 67 -22 95 l-8 52 -89 -134z"/>
</g>
</svg>
